# xmcd
#
# Track frame offsets: 
#        150
#        12155
#        24338
#        37633
#        52359
#        66669
#        79149
#        92438
#        104036
#        117926
#        129852
#        144496
#        157301
#        171378
#        185054
#        199127
#        210710
#        222922
#
# Disc length: 3152 seconds
#
# Revision: 1
# Processed by: cddbd v1.5.2PL0 Copyright (c) Steve Scherf et al.
# Submitted via: ExactAudioCopy v0.95b2
#
DISCID=0c0c4e12
DTITLE=Washboard Sam - The Essential Washboard Sam Disc 2
DYEAR=2001
DGENRE=General Blues
TTITLE0=Black And Tackle
TTITLE1=Come On In
TTITLE2=It Ain't No Lie with Joe McCoy
TTITLE3=Easy Ridin' Mama
TTITLE4=You Waited Too Long
TTITLE5=Arlena with The Washtub Rhythm Kings
TTITLE6=Digging My Potatoes
TTITLE7=Down At The Bad Man's Ball
TTITLE8=I'm Gonna Get It with The Hokum Boys
TTITLE9=Bukka's Jitterbug Swing with Bukka White
TTITLE10=Ladies Man
TTITLE11=Low Down Woman
TTITLE12=Sophisticated Mama
TTITLE13=Down South Woman Blues
TTITLE14=Soap And Water Blues
TTITLE15=Why Did You Do That To Me?
TTITLE16=Just Got To Hold You
TTITLE17=Washboard Swing
EXTD=william hale
EXTT0=
EXTT1=
EXTT2=
EXTT3=
EXTT4=
EXTT5=
EXTT6=
EXTT7=
EXTT8=
EXTT9=
EXTT10=
EXTT11=
EXTT12=
EXTT13=
EXTT14=
EXTT15=
EXTT16=
EXTT17=
PLAYORDER=
